<svg width="22" height="29" viewBox="0 0 22 29" fill="none" xmlns="http://www.w3.org/2000/svg">
<path d="M22 11.0065C22 19.3865 12.05 27.4465 11.62 27.7865C11.4435 27.926 11.225 28.0019 11 28.0019C10.775 28.0019 10.5565 27.926 10.38 27.7865C10.08 27.5565 3.21 21.9965 0.81 15.3465C0.765649 15.2224 0.746256 15.0908 0.752935 14.9592C0.759614 14.8276 0.792233 14.6986 0.848919 14.5797C0.905605 14.4607 0.985239 14.3541 1.08324 14.2661C1.18125 14.178 1.29569 14.1102 1.42 14.0665C1.66806 13.9795 1.9404 13.9937 2.17808 14.1059C2.41576 14.2182 2.59966 14.4196 2.69 14.6665C4.5 19.6665 9.28 24.1865 11 25.6665C13.13 23.7865 20 17.2765 20 10.9765C19.9956 8.99597 19.3381 7.07223 18.1293 5.50339C16.9206 3.93456 15.2281 2.80824 13.3142 2.29901C11.4002 1.78977 9.37181 1.92605 7.54323 2.68674C5.71465 3.44742 4.18804 4.79002 3.2 6.50646C3.06808 6.73519 2.85105 6.90246 2.59626 6.97178C2.34148 7.04109 2.06962 7.00683 1.84 6.87646C1.72541 6.81113 1.62488 6.72377 1.5442 6.61943C1.46351 6.51508 1.40427 6.3958 1.36988 6.26846C1.33549 6.14112 1.32663 6.00823 1.34381 5.87746C1.361 5.74668 1.40388 5.62059 1.47 5.50646C2.67991 3.40755 4.5489 1.76677 6.78681 0.83885C9.02473 -0.0890724 11.5064 -0.252235 13.8465 0.374691C16.1867 1.00162 18.2544 2.38356 19.7287 4.30599C21.203 6.22842 22.0014 8.58379 22 11.0065ZM11 16.0065C10.0111 16.0065 9.0444 15.7132 8.22215 15.1638C7.3999 14.6144 6.75904 13.8335 6.3806 12.9199C6.00216 12.0062 5.90315 11.0009 6.09607 10.031C6.289 9.0611 6.7652 8.17019 7.46447 7.47092C8.16373 6.77166 9.05464 6.29546 10.0245 6.10253C10.9945 5.9096 11.9998 6.00862 12.9134 6.38706C13.827 6.7655 14.6079 7.40636 15.1573 8.22861C15.7068 9.05085 16 10.0175 16 11.0065C16 12.3325 15.4732 13.6043 14.5355 14.542C13.5979 15.4797 12.3261 16.0065 11 16.0065ZM11 14.0065C11.5933 14.0065 12.1734 13.8305 12.6667 13.5009C13.1601 13.1712 13.5446 12.7027 13.7716 12.1545C13.9987 11.6063 14.0581 11.0031 13.9424 10.4212C13.8266 9.83924 13.5409 9.30469 13.1213 8.88514C12.7018 8.46558 12.1672 8.17986 11.5853 8.0641C11.0033 7.94834 10.4001 8.00775 9.85195 8.23482C9.30377 8.46188 8.83524 8.8464 8.50559 9.33975C8.17595 9.83309 8 10.4131 8 11.0065C8 11.8021 8.31607 12.5652 8.87868 13.1278C9.44129 13.6904 10.2044 14.0065 11 14.0065ZM1 10.0065C1.19778 10.0065 1.39112 9.94781 1.55557 9.83793C1.72002 9.72804 1.84819 9.57187 1.92388 9.38914C1.99957 9.20641 2.01937 9.00535 1.98079 8.81137C1.9422 8.61738 1.84696 8.4392 1.70711 8.29935C1.56725 8.1595 1.38907 8.06426 1.19509 8.02567C1.00111 7.98709 0.800043 8.00689 0.617317 8.08258C0.434591 8.15826 0.278412 8.28644 0.168531 8.45089C0.0586496 8.61533 5.38895e-07 8.80867 5.38895e-07 9.00646C5.38895e-07 9.27167 0.105358 9.52603 0.292894 9.71356C0.48043 9.9011 0.734784 10.0065 1 10.0065ZM2 12.0065C2 11.8087 1.94135 11.6153 1.83147 11.4509C1.72159 11.2864 1.56541 11.1583 1.38268 11.0826C1.19996 11.0069 0.998891 10.9871 0.80491 11.0257C0.610929 11.0643 0.432746 11.1595 0.292894 11.2993C0.153041 11.4392 0.0578004 11.6174 0.0192152 11.8114C-0.0193701 12.0053 0.000433281 12.2064 0.0761209 12.3891C0.151809 12.5719 0.279981 12.728 0.44443 12.8379C0.60888 12.9478 0.802219 13.0065 1 13.0065C1.26522 13.0065 1.51957 12.9011 1.70711 12.7136C1.89464 12.526 2 12.2717 2 12.0065Z" fill="#FFA722"/>
</svg>
