<svg width="17" height="27" viewBox="0 0 17 27" fill="none" xmlns="http://www.w3.org/2000/svg">
<path fill-rule="evenodd" clip-rule="evenodd" d="M13.5 1.68731H3.37513C3.15346 1.68724 2.93395 1.73085 2.72915 1.81565C2.52434 1.90045 2.33825 2.02477 2.18151 2.18151C2.02477 2.33825 1.90045 2.52434 1.81565 2.72915C1.73085 2.93395 1.68724 3.15346 1.68731 3.37513V23.6249C1.68731 23.8465 1.73097 24.0659 1.8158 24.2707C1.90062 24.4754 2.02496 24.6615 2.18169 24.8182C2.33843 24.9748 2.52449 25.0991 2.72927 25.1839C2.93404 25.2687 3.1535 25.3122 3.37513 25.3122H13.5C13.9475 25.3122 14.3767 25.1344 14.6931 24.818C15.0095 24.5015 15.1873 24.0724 15.1873 23.6249V3.37513C15.1874 3.1535 15.1438 2.93404 15.059 2.72927C14.9743 2.52449 14.85 2.33843 14.6933 2.18169C14.5366 2.02496 14.3506 1.90062 14.1458 1.8158C13.9411 1.73097 13.7216 1.68731 13.5 1.68731ZM3.37513 0C2.47999 0 1.62151 0.355593 0.988552 0.988552C0.355593 1.62151 0 2.47999 0 3.37513V23.6249C0 24.52 0.355593 25.3785 0.988552 26.0114C1.62151 26.6444 2.47999 27 3.37513 27H13.5C14.3951 27 15.2536 26.6444 15.8866 26.0114C16.5195 25.3785 16.8751 24.52 16.8751 23.6249V3.37513C16.8751 2.9319 16.7878 2.49301 16.6182 2.08352C16.4486 1.67403 16.2 1.30196 15.8866 0.988552C15.5732 0.675142 15.2011 0.426532 14.7916 0.256916C14.3821 0.0873002 13.9432 0 13.5 0L3.37513 0Z" fill="#FFA722"/>
<path fill-rule="evenodd" clip-rule="evenodd" d="M8.43731 23.6249C8.77101 23.6249 9.09721 23.5259 9.37468 23.3405C9.65214 23.1552 9.86841 22.8917 9.99613 22.5834C10.1239 22.2751 10.1573 21.9359 10.0922 21.6086C10.0272 21.2813 9.86652 20.9806 9.6306 20.7446C9.39467 20.5086 9.09407 20.3479 8.7668 20.2827C8.43953 20.2176 8.10028 20.2509 7.79196 20.3785C7.48363 20.5062 7.22007 20.7224 7.03461 20.9998C6.84914 21.2772 6.7501 21.6034 6.75 21.937C6.74993 22.1587 6.79353 22.3781 6.87829 22.5829C6.96306 22.7877 7.08733 22.9737 7.24402 23.1305C7.40071 23.2872 7.58674 23.4116 7.79149 23.4964C7.99623 23.5812 8.21569 23.6249 8.43731 23.6249Z" fill="#FFA722"/>
</svg>
