<svg width="26" height="26" viewBox="0 0 26 26" fill="none" xmlns="http://www.w3.org/2000/svg">
<path d="M13 0C5.83143 0 0 5.83143 0 13C0 20.1686 5.83143 26 13 26C20.1686 26 26 20.1686 26 13C26 5.83143 20.1686 0 13 0ZM13 24.1429C6.85564 24.1429 1.85714 19.1444 1.85714 13C1.85714 6.85564 6.85564 1.85714 13 1.85714C19.1444 1.85714 24.1429 6.85564 24.1429 13C24.1429 19.1444 19.1444 24.1429 13 24.1429ZM17.5203 19.0394C17.7747 19.4842 17.6196 20.0516 17.1749 20.306C17.03 20.3896 16.8712 20.4286 16.7152 20.4286C16.3921 20.4286 16.0791 20.2605 15.9083 19.9606L12.194 13.4606C12.1141 13.3204 12.0714 13.1616 12.0714 13V3.71429C12.0714 3.20171 12.4865 2.78571 13 2.78571C13.5135 2.78571 13.9286 3.20171 13.9286 3.71429V12.753L17.5203 19.0394Z" fill="#FFA722"/>
</svg>
